<?xml version="1.0" standalone="no"?>
<!DOCTYPE svg PUBLIC "-//W3C//DTD SVG 20010904//EN"
 "http://www.w3.org/TR/2001/REC-SVG-20010904/DTD/svg10.dtd">
<svg version="1.0" xmlns="http://www.w3.org/2000/svg"
 width="989.000000pt" height="1280.000000pt" viewBox="0 0 989.000000 1280.000000"
 preserveAspectRatio="xMidYMid meet">
<metadata>
Created by potrace 1.15, written by Peter Selinger 2001-2017
</metadata>
<g transform="translate(0.000000,1280.000000) scale(0.100000,-0.100000)"
fill="#9e9e9e" stroke="none">
<path d="M2636 9159 c-55 -9 -168 -61 -242 -112 -27 -19 -121 -76 -209 -127
-194 -113 -288 -176 -467 -311 -75 -57 -149 -112 -163 -122 -15 -11 -24 -22
-21 -25 4 -3 12 0 18 6 7 7 20 12 30 12 10 0 18 4 18 9 0 4 37 30 82 56 45 26
111 68 147 95 74 52 91 63 91 57 0 -6 -184 -145 -235 -178 -62 -40 -110 -60
-149 -63 -20 -2 -41 -8 -48 -13 -7 -6 -31 -13 -53 -17 -22 -3 -56 -8 -75 -11
-19 -3 -57 -12 -85 -19 -54 -15 -43 -19 50 -17 l50 1 -100 -52 c-55 -29 -128
-72 -162 -96 -34 -23 -94 -58 -133 -78 -40 -20 -70 -37 -68 -39 8 -8 109 26
178 59 41 20 80 36 87 36 6 0 15 4 18 10 4 7 -3 7 -19 0 -14 -5 -26 -7 -26 -4
0 7 92 45 97 40 3 -2 -5 -7 -16 -11 -12 -3 -19 -11 -15 -16 3 -5 -5 -18 -18
-29 -20 -17 -17 -17 19 3 24 12 43 28 43 34 0 7 3 12 8 11 4 -1 32 10 62 24
45 21 62 25 95 18 l40 -8 -42 -1 c-24 0 -43 -5 -43 -10 0 -6 -15 -12 -32 -14
-18 -2 -3 -2 35 0 37 3 67 1 67 -3 0 -5 -41 -49 -92 -98 -66 -64 -76 -75 -33
-40 109 90 102 79 -45 -67 -79 -79 -127 -130 -105 -113 22 17 60 44 85 59 25
16 96 79 158 142 61 63 112 110 112 105 0 -4 -16 -24 -36 -43 -20 -18 -87 -97
-148 -174 -62 -77 -120 -146 -129 -153 -9 -8 -33 -44 -53 -80 -21 -37 -56 -94
-79 -127 -23 -33 -50 -80 -59 -105 -10 -25 -38 -77 -62 -117 -73 -117 -107
-270 -120 -548 -6 -136 -9 -155 -34 -205 -37 -73 -84 -226 -110 -358 -20 -100
-26 -112 -76 -179 -36 -49 -67 -78 -92 -89 -26 -12 -32 -18 -20 -21 9 -2 27 1
40 8 21 11 22 11 9 -4 -18 -23 -5 -21 35 4 19 11 34 17 34 12 1 -4 11 5 25 21
13 16 23 23 22 15 -1 -8 1 -52 5 -99 7 -75 5 -98 -17 -175 -30 -108 -63 -176
-96 -192 -13 -7 -43 -13 -67 -13 -51 0 -100 -19 -126 -49 -14 -16 -16 -21 -5
-22 8 0 29 -2 48 -4 56 -5 118 27 214 113 4 4 15 16 23 27 15 20 15 20 11 -3
-4 -19 -2 -22 14 -17 10 4 19 2 19 -3 0 -12 -25 -33 -32 -27 -3 3 -4 -6 -3
-20 2 -16 -4 -30 -18 -40 -11 -8 -18 -17 -15 -20 3 -3 25 16 49 43 45 49 236
281 249 303 12 18 23 5 58 -63 38 -76 55 -175 50 -297 -3 -96 3 -107 21 -36 9
38 8 65 -9 163 -12 64 -23 150 -25 190 -3 48 -10 78 -20 89 -16 16 -14 31 10
88 8 17 14 24 14 17 1 -7 5 -10 11 -7 11 7 25 -39 15 -55 -3 -6 -1 -9 6 -8 9
2 19 -19 29 -57 8 -33 18 -62 22 -65 23 -17 45 -104 51 -201 4 -58 13 -123 21
-145 7 -22 17 -78 21 -124 5 -58 10 -79 16 -65 4 11 8 17 8 14 1 -3 23 -109
50 -235 80 -371 84 -491 21 -629 -26 -58 -44 -86 -144 -227 -26 -38 -46 -68
-44 -68 3 0 33 36 68 80 35 43 66 78 67 76 2 -2 -5 -28 -17 -57 -18 -48 -60
-248 -60 -287 0 -12 3 -12 15 -2 8 7 15 21 15 31 0 10 7 38 16 61 53 142 77
198 86 198 5 0 7 4 4 9 -3 4 7 19 22 33 15 13 35 35 44 48 l17 25 1 -25 c0
-14 7 -47 14 -75 11 -39 14 -44 15 -22 1 16 5 26 10 22 6 -3 15 3 21 12 9 14
10 14 7 2 -3 -9 -1 -22 4 -30 7 -11 9 -9 9 8 0 32 -11 54 -23 46 -6 -4 -7 -1
-1 8 5 8 7 23 6 34 -1 13 3 10 12 -10 l14 -30 1 35 c1 32 53 140 67 140 3 0
-4 -16 -15 -36 -12 -20 -20 -38 -18 -40 8 -9 152 235 174 294 14 39 26 99 30
153 6 85 7 89 29 89 29 0 44 -27 49 -90 1 -27 6 -53 10 -59 3 -6 4 -14 2 -18
-3 -5 -8 -30 -11 -58 -3 -27 -15 -75 -26 -105 -12 -30 -23 -63 -27 -73 -3 -9
-10 -17 -15 -17 -5 0 -6 -9 -3 -20 3 -11 3 -20 -2 -20 -5 0 -14 -14 -20 -30
-7 -19 -8 -28 -1 -24 6 4 8 -4 4 -22 -7 -34 7 -66 17 -39 4 9 3 13 -3 10 -15
-10 -12 9 6 31 15 19 16 19 9 -1 -6 -19 -5 -18 14 2 33 35 101 135 101 148 0
7 11 24 24 38 l24 26 31 -39 c37 -46 38 -64 10 -180 -20 -86 -22 -89 -102
-178 -45 -50 -122 -128 -170 -173 -106 -99 -147 -163 -147 -233 0 -41 -5 -54
-35 -87 -19 -22 -35 -47 -35 -57 0 -9 -14 -37 -30 -62 -16 -25 -30 -50 -30
-57 0 -15 40 -44 52 -37 13 8 10 -10 -18 -103 -35 -118 -43 -281 -20 -373 35
-136 144 -309 246 -390 22 -18 40 -35 40 -39 0 -9 -205 -31 -291 -31 -89 0
-323 -36 -400 -61 -122 -40 -191 -79 -255 -145 -52 -54 -65 -74 -87 -143 -15
-44 -27 -86 -27 -94 0 -7 -13 -23 -30 -35 -40 -30 -39 -64 2 -102 l32 -30 -18
-49 c-20 -56 -14 -75 30 -110 38 -30 128 -29 208 3 34 13 92 28 131 32 38 4
83 12 100 19 16 7 58 16 93 19 l63 7 -8 -38 c-20 -98 -2 -136 74 -158 32 -9
72 -30 90 -45 28 -25 41 -29 95 -30 99 -2 151 -2 183 0 17 1 48 0 69 -2 37 -4
40 -6 53 -50 9 -32 26 -57 55 -82 52 -45 49 -42 93 -92 74 -87 216 -114 325
-63 30 14 76 34 101 43 25 9 64 32 87 51 57 49 97 52 272 22 80 -14 190 -31
245 -37 136 -16 173 -26 300 -83 61 -27 147 -58 191 -70 l81 -20 -5 -63 c-3
-44 -1 -64 7 -64 6 0 40 30 75 66 54 56 68 65 88 59 42 -13 83 -52 113 -106
24 -45 30 -68 33 -142 3 -48 8 -87 12 -87 4 0 13 13 19 29 16 37 65 84 119
111 49 26 64 27 153 9 64 -12 67 -12 114 15 32 18 51 23 55 16 4 -6 13 -43 20
-81 24 -126 46 -95 56 77 5 101 3 136 -16 232 l-22 112 21 78 c12 43 21 87 21
98 0 10 5 36 11 56 11 43 28 48 82 22 31 -15 36 -15 68 2 32 17 61 28 173 68
48 17 48 17 72 -5 31 -29 56 -28 241 12 144 30 153 31 298 23 232 -13 288 -9
368 23 84 34 112 71 104 136 -2 23 -8 49 -11 58 -6 12 5 18 51 29 72 17 113
54 113 101 0 18 -11 64 -24 103 -25 72 -66 359 -53 372 9 9 51 -19 130 -89 67
-59 72 -61 225 -107 242 -72 617 -222 794 -318 40 -21 143 -82 228 -136 85
-53 202 -120 259 -148 60 -29 119 -66 142 -89 34 -34 45 -39 85 -39 39 0 54 6
90 35 24 20 58 42 76 50 53 22 114 93 153 180 34 74 37 89 45 214 l8 134 -34
71 c-19 39 -34 81 -34 94 0 14 -9 64 -21 112 -18 77 -24 91 -53 112 -83 59
-218 170 -291 239 -44 42 -174 148 -290 234 -115 87 -211 161 -213 165 -1 3
86 12 195 19 l197 13 290 186 c332 214 267 144 507 542 135 224 136 225 195
257 56 31 64 32 172 33 89 0 112 3 112 14 0 9 -25 19 -77 30 -83 17 -140 42
-188 80 l-30 24 65 31 c58 28 75 31 158 31 99 0 120 12 50 30 -104 25 -126 34
-176 68 -56 38 -178 159 -169 168 3 3 67 -6 144 -20 296 -54 440 -77 527 -82
50 -4 141 -18 201 -33 61 -15 116 -26 122 -24 27 9 -5 37 -96 83 -53 27 -129
76 -169 109 l-74 61 54 0 c29 0 94 -11 145 -24 87 -22 103 -23 103 -5 0 4 -38
28 -85 54 -149 81 -411 332 -498 478 -26 43 -49 83 -50 89 -3 17 103 45 318
84 110 19 220 45 245 56 37 17 72 21 203 26 86 2 157 8 157 12 0 18 -31 29
-135 50 -129 25 -333 93 -437 146 -56 28 -243 141 -266 160 -12 9 163 154 309
255 205 144 209 145 306 165 156 30 159 48 10 58 -219 14 -280 42 -497 223
-246 207 -531 536 -762 880 -137 204 -145 218 -129 228 6 3 11 13 11 22 0 11
-7 14 -24 11 -21 -4 -32 11 -113 151 -128 220 -276 516 -302 599 -14 46 -21
97 -21 150 0 69 5 90 39 173 38 89 41 109 21 109 -5 0 -36 -39 -69 -87 -32
-49 -69 -98 -82 -109 -13 -12 -71 -73 -129 -136 -58 -62 -188 -185 -290 -272
-179 -153 -191 -162 -388 -267 l-203 -110 -102 -9 c-219 -21 -248 -20 -297 5
-57 29 -77 68 -86 170 -4 47 -11 74 -18 72 -5 -2 -16 -41 -23 -88 -10 -66 -10
-178 -2 -515 l10 -431 -37 -194 c-21 -112 -42 -201 -51 -211 -10 -11 -13 -26
-9 -42 10 -40 -31 -344 -69 -513 -36 -163 -40 -173 -57 -173 -20 0 -75 -48
-96 -84 -21 -35 -21 -36 -2 -46 10 -5 24 -10 31 -10 34 0 84 -52 141 -145 33
-55 75 -118 92 -140 18 -22 38 -62 45 -89 26 -105 65 -151 311 -372 91 -81
189 -177 218 -213 54 -67 174 -253 167 -259 -2 -2 -42 14 -88 36 -85 40 -177
103 -316 216 -56 45 -102 72 -180 103 -74 31 -149 73 -249 141 -79 53 -149
104 -156 112 -16 19 -110 228 -136 305 -12 33 -34 112 -50 175 -16 63 -35 134
-42 157 -16 55 2 133 53 229 33 64 74 179 93 267 22 99 -16 453 -64 592 -47
138 -186 344 -303 451 -65 60 -107 84 -306 176 l-95 43 -130 0 c-72 -1 -146
-4 -165 -8 l-35 -7 25 26 24 26 -35 -7 c-19 -4 -60 -21 -90 -38 -105 -58 -191
-99 -196 -94 -3 3 13 54 37 114 46 120 53 160 27 176 -24 16 -52 -13 -89 -90
-30 -64 -49 -80 -49 -43 0 25 27 80 39 80 10 0 31 46 31 69 0 26 -32 51 -66
51 -27 0 -33 -6 -59 -60 -16 -33 -32 -60 -36 -60 -13 0 -16 24 -6 63 8 31 6
41 -8 57 -21 23 -67 26 -84 7 -6 -8 -14 -29 -17 -47 l-7 -33 -11 34 c-9 29
-16 34 -47 37 -31 3 -40 -2 -62 -31 -14 -19 -40 -67 -59 -108 -45 -102 -96
-188 -134 -226 -31 -32 -64 -44 -64 -23 0 19 -38 30 -67 19 -33 -12 -43 -26
-43 -60 0 -32 76 -100 163 -145 l59 -30 -41 -13 c-56 -16 -111 -87 -140 -179
-28 -86 -26 -106 14 -110 80 -7 97 -23 45 -41 -16 -5 -30 -12 -30 -15 0 -3 10
-21 21 -41 21 -35 21 -38 5 -72 -9 -20 -15 -38 -12 -40 2 -2 18 3 35 11 40 21
50 20 44 -4 -7 -26 3 -25 39 5 16 14 33 25 38 25 8 0 4 -360 -6 -508 l-6 -83
-53 48 c-28 26 -55 58 -59 70 -8 27 -96 98 -161 130 -27 14 -68 35 -90 49 -26
15 -55 24 -85 24 -34 0 -48 5 -57 19 -7 11 -25 22 -41 26 -42 9 -151 92 -282
214 -63 60 -132 123 -153 141 l-39 34 41 19 c28 13 50 34 67 63 14 24 29 42
34 39 14 -9 58 35 65 65 4 20 13 30 25 30 24 0 63 49 57 71 -8 31 6 40 41 27
27 -11 37 -10 60 3 27 14 27 17 32 136 4 107 7 124 25 137 11 9 26 16 33 16 7
0 15 7 18 15 4 8 18 15 33 16 14 0 21 3 14 6 -10 3 -10 8 0 20 35 43 58 63 68
58 5 -4 17 -1 25 6 13 10 13 8 4 -15 -5 -15 -15 -37 -22 -49 -10 -20 -10 -21
5 -8 15 12 17 10 17 -16 0 -35 16 -53 48 -53 19 0 23 4 17 18 -13 27 -18 82
-9 82 5 0 18 -7 29 -15 34 -27 89 -10 178 54 54 40 60 53 17 41 -36 -10 -98 7
-103 29 -2 9 0 26 5 39 6 17 5 21 -5 16 -8 -5 -7 -2 2 9 19 24 8 32 -14 10
-17 -16 -17 -15 -9 42 14 96 9 302 -9 365 -9 30 -43 96 -77 147 -33 50 -60 97
-60 104 0 24 -61 116 -114 171 -30 31 -77 68 -105 83 -59 29 -65 39 -18 30 30
-7 31 -6 12 9 -11 8 -28 16 -37 16 -10 0 -22 9 -28 21 -6 11 -19 19 -28 18
-24 -3 -50 9 -103 48 -51 36 -75 45 -38 13 l24 -20 -30 11 c-117 43 -233 61
-309 48z m-1069 -794 c-23 -21 -38 -25 -89 -25 -65 0 -110 -10 -170 -40 -54
-26 -57 -6 -5 24 67 40 155 65 227 65 l65 0 -28 -24z m1033 -1133 c73 -49 82
-70 75 -157 -4 -38 -8 -72 -10 -75 -2 -4 -33 -2 -69 3 -74 11 -72 10 -82 123
-8 81 1 144 19 144 7 0 37 -17 67 -38z m1733 -177 c67 -24 83 -26 237 -24 100
2 179 -2 200 -8 97 -31 143 -23 94 16 l-26 20 27 7 c43 11 103 10 116 -3 6 -6
19 -49 30 -95 15 -72 17 -101 10 -187 -9 -97 -12 -107 -86 -266 l-77 -166 -25
-167 c-21 -140 -24 -192 -20 -324 l4 -158 -31 0 c-40 0 -52 -9 -65 -43 -23
-60 -14 -118 29 -185 l40 -63 -19 -27 c-59 -84 -90 -213 -70 -287 22 -80 28
-179 14 -240 -8 -33 -16 -72 -19 -87 l-6 -27 -88 46 c-118 63 -209 130 -221
164 -8 23 -17 29 -57 35 -30 4 -54 15 -65 28 -19 24 -106 34 -306 35 -118 1
-143 6 -143 25 0 10 57 11 244 8 134 -3 256 -2 270 2 22 5 26 12 26 41 0 25
-6 37 -22 46 -21 12 -149 24 -373 37 l-120 7 -3 29 c-3 27 -2 28 31 22 67 -13
379 -16 394 -5 21 18 16 57 -11 74 -28 19 -144 40 -321 60 -108 11 -144 20
-215 50 -100 43 -124 66 -116 109 8 40 17 49 112 111 46 30 95 70 109 89 l26
34 56 -19 c59 -20 200 -49 240 -49 45 0 69 38 76 119 5 57 11 78 27 93 35 33
41 66 47 243 6 177 -3 305 -37 560 -10 83 -22 194 -26 248 -7 95 -6 97 15 97
12 0 54 -11 94 -25z m-579 -655 c20 -7 26 -16 26 -40 0 -16 -5 -30 -10 -30
-17 0 -60 47 -60 65 0 18 9 19 44 5z m-2891 -109 c-3 -95 -6 -116 -33 -174
-31 -68 -38 -93 -19 -67 9 12 10 12 5 -3 -3 -10 -6 -24 -6 -30 0 -8 -3 -7 -9
2 -5 8 -9 -4 -9 -35 -1 -37 1 -45 9 -34 9 13 10 13 5 0 -3 -8 -10 -34 -17 -57
-6 -24 -15 -43 -20 -43 -5 0 -9 -7 -9 -14 0 -8 -11 -27 -25 -42 -14 -15 -25
-35 -25 -45 0 -10 -5 -21 -10 -24 -12 -7 -7 23 16 93 8 23 14 71 14 105 1 121
24 226 69 309 22 43 41 86 41 97 0 16 19 71 24 71 1 0 0 -49 -1 -109z m271
-277 c3 -8 2 -12 -4 -9 -6 3 -10 10 -10 16 0 14 7 11 14 -7z m2525 -186 l34
-16 -24 -12 c-13 -7 -40 -26 -60 -41 -20 -16 -45 -29 -54 -29 -16 0 -17 7 -11
53 3 28 6 62 6 75 l0 22 38 -18 c20 -10 52 -26 71 -34z m-2462 -215 c-3 -10
-5 -2 -5 17 0 19 2 27 5 18 2 -10 2 -26 0 -35z m134 -506 c81 -322 86 -437 22
-579 -26 -58 -43 -76 -24 -24 6 14 17 69 26 121 26 165 7 312 -91 684 -30 113
-54 215 -53 226 1 23 49 -149 120 -428z m1959 409 c0 -8 -72 -58 -76 -53 -3 3
12 17 33 31 38 27 43 29 43 22z m-1601 -253 c1 -7 -3 -13 -9 -13 -5 0 -10 15
-9 33 0 27 2 29 9 12 5 -11 9 -26 9 -32z m-193 -290 c-5 -5 -47 152 -52 196
-2 20 10 -15 26 -78 17 -63 28 -116 26 -118z m1815 -27 c30 -14 101 -39 159
-55 58 -17 132 -42 165 -56 33 -13 79 -25 101 -25 23 0 56 -3 73 -6 30 -6 31
-7 16 -30 -11 -18 -12 -29 -4 -51 5 -15 7 -38 4 -51 -11 -45 120 -172 177
-172 7 0 -2 14 -19 31 -20 18 -33 40 -33 55 0 13 2 24 4 24 1 0 16 -21 33 -47
16 -27 44 -56 61 -66 18 -10 32 -16 32 -14 0 3 -11 29 -25 58 -19 43 -22 61
-16 90 7 29 4 41 -10 60 -21 27 -25 53 -8 47 6 -2 30 -42 53 -88 22 -47 46
-86 52 -87 7 -2 9 17 6 56 -5 62 3 111 16 111 12 0 126 -168 162 -240 71 -142
227 -296 325 -321 22 -5 60 -17 84 -24 25 -8 52 -15 61 -15 14 0 20 -20 34
-107 10 -60 21 -123 26 -142 7 -27 5 -39 -10 -61 -10 -14 -37 -80 -60 -146
-46 -134 -103 -246 -159 -313 -54 -64 -72 -105 -77 -170 -11 -127 -20 -129
-129 -23 -74 71 -124 107 -370 268 -147 95 -245 168 -330 244 -44 40 -106 89
-138 110 l-58 39 -55 -26 -55 -25 -47 24 c-44 22 -48 26 -58 78 -6 30 -25 96
-43 146 -17 50 -31 98 -31 107 0 8 -17 66 -37 129 l-37 113 0 260 c1 143 5
274 11 290 7 22 18 32 39 36 50 11 60 10 115 -15z m603 -14 c2 -4 1 -14 -3
-21 -7 -10 -26 -12 -82 -6 -80 8 -92 12 -84 26 7 11 162 12 169 1z m-2312
-238 c-32 -85 -81 -178 -82 -154 -1 8 -9 -1 -20 -20 -28 -52 -24 -31 9 41 16
35 32 73 35 84 6 16 9 17 17 5 7 -12 9 -11 7 5 -3 22 55 147 60 129 2 -6 -10
-47 -26 -90z m275 -36 c-3 -8 -6 -5 -6 6 -1 11 2 17 5 13 3 -3 4 -12 1 -19z
m-127 -148 c-6 -11 -13 -20 -16 -20 -2 0 0 9 6 20 6 11 13 20 16 20 2 0 0 -9
-6 -20z m-266 -75 c-4 -8 -8 -15 -10 -15 -2 0 -4 7 -4 15 0 8 4 15 10 15 5 0
7 -7 4 -15z m3667 -1490 c11 -37 23 -74 26 -81 3 -8 0 -14 -6 -14 -6 0 -11 9
-11 19 0 11 -16 49 -35 85 -19 37 -35 76 -35 87 0 21 1 20 20 -4 11 -14 29
-55 41 -92z m117 -345 c28 -80 59 -169 71 -198 12 -29 21 -55 21 -59 0 -3 -50
-3 -110 0 l-111 6 -47 39 -47 40 -40 -19 c-21 -11 -49 -28 -61 -40 -27 -26
-123 -57 -104 -34 7 8 21 15 32 15 42 0 75 28 81 68 6 37 68 122 89 122 24 0
68 44 89 88 33 72 73 132 81 124 4 -4 29 -72 56 -152z m-473 -310 c-16 -17
-43 -38 -60 -46 -39 -21 -85 -34 -85 -26 1 16 136 99 164 101 6 1 -3 -13 -19
-29z m-125 -170 l25 -19 -28 -10 c-62 -24 -77 -24 -77 -3 0 54 34 68 80 32z
m487 -16 c-3 -3 -12 -4 -19 -1 -8 3 -5 6 6 6 11 1 17 -2 13 -5z m-537 -244
c-37 -28 -130 -74 -137 -67 -3 4 3 10 13 14 10 3 37 21 58 40 23 19 50 33 65
33 l26 0 -25 -20z"/>
<path d="M1159 7973 l-24 -28 28 24 c25 23 32 31 24 31 -2 0 -14 -12 -28 -27z"/>
<path d="M3290 7764 c0 -19 4 -33 8 -30 8 5 4 66 -4 66 -2 0 -4 -16 -4 -36z"/>
<path d="M999 5403 c-8 -9 -27 -24 -44 -35 -16 -10 -23 -18 -15 -18 21 0 57
26 70 51 13 23 7 25 -11 2z"/>
<path d="M1222 5275 c0 -16 2 -22 5 -12 2 9 2 23 0 30 -3 6 -5 -1 -5 -18z"/>
<path d="M1231 5224 c0 -11 3 -14 6 -6 3 7 2 16 -1 19 -3 4 -6 -2 -5 -13z"/>
</g>
</svg>
